<?xml version="1.0" encoding="utf-8"?>
<!-- Generator: Adobe Illustrator 16.0.0, SVG Export Plug-In . SVG Version: 6.00 Build 0)  -->
<!DOCTYPE svg PUBLIC "-//W3C//DTD SVG 1.1//EN" "http://www.w3.org/Graphics/SVG/1.1/DTD/svg11.dtd">
<svg version="1.1" id="Layer_1" xmlns="http://www.w3.org/2000/svg" xmlns:xlink="http://www.w3.org/1999/xlink" x="0px" y="0px"
	 width="1728px" height="1728px" viewBox="-5287.032 0 1728 1728" enable-background="new -5287.032 0 1728 1728"
	 xml:space="preserve">
<rect x="451.324" y="687.97" width="204" height="207"/>
<g>
	<g id="XMLID_1_">
		<g>
			<path fill="none" stroke="#FFFFFF" stroke-width="3" stroke-miterlimit="10" d="M483.676,805.501
				c4.511,13.988,13.351,26.028,24.94,34.55c11.37,8.37,25.38,13.33,40.55,13.42c0.13,0,0.271,0,0.4,0
				c15.1,0,29.07-4.83,40.449-13.04c11.78-8.49,20.78-20.59,25.381-34.69c2.21-6.77,3.41-14.01,3.41-21.52s-1.2-14.75-3.41-21.521
				c-4.602-14.09-13.61-26.198-25.391-34.68c-11.369-8.21-25.34-13.04-40.439-13.04c-0.13,0-0.271,0-0.4,0
				c-15.17,0.09-29.18,5.062-40.55,13.42c-11.59,8.521-20.43,20.562-24.94,34.54"/>
			<path fill="none" stroke="#FFFFFF" stroke-width="3" stroke-miterlimit="10" d="M508.616,840.041l17.43-23.99
				c-6.58-4.87-11.6-11.74-14.159-19.71"/>
			<path fill="none" stroke="#FFFFFF" stroke-width="3" stroke-miterlimit="10" d="M549.166,853.221v-29.43
				c-8.65-0.092-16.64-2.95-23.12-7.74"/>
			<path fill="none" stroke="#FFFFFF" stroke-width="3" stroke-miterlimit="10" d="M589.727,840.041l-17.16-23.62
				c-6.49,4.64-14.42,7.38-23,7.38c-0.13,0-0.26-0.01-0.4-0.01"/>
			<path fill="none" stroke="#FFFFFF" stroke-width="3" stroke-miterlimit="10" d="M614.786,805.541l-27.62-8.972
				c-2.65,8.08-7.83,15.012-14.6,19.852"/>
			<path fill="none" stroke="#FFFFFF" stroke-width="3" stroke-miterlimit="10" d="M614.786,762.9l-27.62,8.98
				c1.28,3.88,1.98,8.028,1.98,12.34c0,4.32-0.7,8.46-1.98,12.35"/>
			<path fill="none" stroke="#FFFFFF" stroke-width="3" stroke-miterlimit="10" d="M589.727,728.4l-17.16,23.62
				c6.77,4.852,11.95,11.78,14.6,19.86"/>
			<path fill="none" stroke="#FFFFFF" stroke-width="3" stroke-miterlimit="10" d="M549.166,715.23v29.43
				c0.141,0,0.271-0.01,0.4-0.01c8.58,0,16.51,2.74,23,7.37"/>
			<path fill="none" stroke="#FFFFFF" stroke-width="3" stroke-miterlimit="10" d="M508.616,728.4l17.43,24
				c6.48-4.8,14.47-7.66,23.12-7.74"/>
			<path fill="none" stroke="#FFFFFF" stroke-width="3" stroke-miterlimit="10" d="M511.887,772.11
				c2.56-7.97,7.579-14.84,14.159-19.71"/>
			<path fill="none" stroke="#FFFFFF" stroke-width="3" stroke-miterlimit="10" d="M511.887,796.341
				c-1.221-3.82-1.891-7.892-1.891-12.12c0-4.22,0.67-8.29,1.891-12.11l-28.211-9.17c-2.17,6.71-3.35,13.86-3.35,21.28
				c0,7.43,1.18,14.58,3.35,21.28L511.887,796.341z"/>
		</g>
	</g>
</g>
<rect x="664.977" y="687.97" width="204" height="207"/>
<rect x="874.709" y="690.329" width="226.791" height="205.585"/>
<rect x="1120.309" y="690.329" width="226.791" height="205.585"/>
<g>
	
		<line fill="none" stroke="#FFFFFF" stroke-width="3" stroke-miterlimit="10" x1="733.852" y1="732.848" x2="741.686" y2="746.416"/>
	
		<line fill="none" stroke="#FFFFFF" stroke-width="3" stroke-miterlimit="10" x1="709.268" y1="757.431" x2="722.836" y2="765.264"/>
	<line fill="none" stroke="#FFFFFF" stroke-width="3" stroke-miterlimit="10" x1="700.27" y1="791.013" x2="715.937" y2="791.013"/>
	
		<line fill="none" stroke="#FFFFFF" stroke-width="3" stroke-miterlimit="10" x1="709.268" y1="824.595" x2="722.836" y2="816.761"/>
	<line fill="none" stroke="#FFFFFF" stroke-width="3" stroke-miterlimit="10" x1="733.852" y1="849.179" x2="741.686" y2="835.61"/>
	
		<line fill="none" stroke="#FFFFFF" stroke-width="3" stroke-miterlimit="10" x1="767.434" y1="858.177" x2="767.434" y2="842.509"/>
	<line fill="none" stroke="#FFFFFF" stroke-width="3" stroke-miterlimit="10" x1="801.016" y1="849.179" x2="793.182" y2="835.61"/>
	<line fill="none" stroke="#FFFFFF" stroke-width="3" stroke-miterlimit="10" x1="825.6" y1="824.595" x2="812.03" y2="816.761"/>
	<line fill="none" stroke="#FFFFFF" stroke-width="3" stroke-miterlimit="10" x1="825.6" y1="757.431" x2="812.03" y2="765.265"/>
	
		<line fill="none" stroke="#FFFFFF" stroke-width="3" stroke-miterlimit="10" x1="801.016" y1="732.847" x2="793.182" y2="746.416"/>
	<path fill="none" stroke="#FFFFFF" stroke-width="3" stroke-miterlimit="10" d="M833.684,791.012"/>
	<path fill="none" stroke="#FFFFFF" stroke-width="3" stroke-miterlimit="10" d="M767.434,739.05
		c-28.698,0-51.963,23.264-51.963,51.962c0,28.698,23.265,51.961,51.963,51.961s51.963-23.264,51.963-51.961h14.287
		c0,36.588-29.661,66.25-66.25,66.25s-66.25-29.662-66.25-66.25c0-36.589,29.661-66.25,66.25-66.25V739.05z"/>
</g>
<circle fill="none" stroke="#FFFFFF" stroke-width="3" stroke-miterlimit="10" cx="989.059" cy="807.729" r="69.351"/>
<circle fill="none" stroke="#FFFFFF" stroke-width="3" stroke-miterlimit="10" cx="989.059" cy="807.729" r="69.351"/>
<circle fill="none" stroke="#FFFFFF" stroke-width="3" stroke-miterlimit="10" cx="989.059" cy="807.729" r="40.201"/>
<line fill="none" stroke="#FFFFFF" stroke-width="3" stroke-miterlimit="10" x1="989.061" y1="766.232" x2="989.061" y2="738.377"/>
<line fill="none" stroke="#FFFFFF" stroke-width="3" stroke-miterlimit="10" x1="968.312" y1="771.791" x2="954.385" y2="747.668"/>
<line fill="none" stroke="#FFFFFF" stroke-width="3" stroke-miterlimit="10" x1="953.123" y1="786.979" x2="929" y2="773.053"/>
<line fill="none" stroke="#FFFFFF" stroke-width="3" stroke-miterlimit="10" x1="947.562" y1="807.729" x2="919.709" y2="807.729"/>
<line fill="none" stroke="#FFFFFF" stroke-width="3" stroke-miterlimit="10" x1="953.122" y1="828.479" x2="929" y2="842.404"/>
<line fill="none" stroke="#FFFFFF" stroke-width="3" stroke-miterlimit="10" x1="968.311" y1="843.667" x2="954.385" y2="867.789"/>
<line fill="none" stroke="#FFFFFF" stroke-width="3" stroke-miterlimit="10" x1="989.059" y1="849.227" x2="989.061" y2="877.08"/>
<line fill="none" stroke="#FFFFFF" stroke-width="3" stroke-miterlimit="10" x1="1009.809" y1="843.667" x2="1023.736" y2="867.789"/>
<line fill="none" stroke="#FFFFFF" stroke-width="3" stroke-miterlimit="10" x1="1024.998" y1="828.479" x2="1049.121" y2="842.404"/>
<line fill="none" stroke="#FFFFFF" stroke-width="3" stroke-miterlimit="10" x1="1030.559" y1="807.729" x2="1058.412" y2="807.729"/>
<line fill="none" stroke="#FFFFFF" stroke-width="3" stroke-miterlimit="10" x1="1024.998" y1="786.98" x2="1049.121" y2="773.053"/>
<line fill="none" stroke="#FFFFFF" stroke-width="3" stroke-miterlimit="10" x1="1009.809" y1="771.791" x2="1023.736" y2="747.668"/>
<line fill="none" stroke="#FFFFFF" stroke-width="3" stroke-miterlimit="10" x1="1254.455" y1="766.232" x2="1254.455" y2="738.377"/>
<line fill="none" stroke="#FFFFFF" stroke-width="3" stroke-miterlimit="10" x1="1233.707" y1="771.791" x2="1219.779" y2="747.668"/>
<line fill="none" stroke="#FFFFFF" stroke-width="3" stroke-miterlimit="10" x1="1218.518" y1="786.979" x2="1194.395" y2="773.053"/>
<line fill="none" stroke="#FFFFFF" stroke-width="3" stroke-miterlimit="10" x1="1212.957" y1="807.729" x2="1185.104" y2="807.729"/>
<line fill="none" stroke="#FFFFFF" stroke-width="3" stroke-miterlimit="10" x1="1218.518" y1="828.479" x2="1194.395" y2="842.404"/>
<line fill="none" stroke="#FFFFFF" stroke-width="3" stroke-miterlimit="10" x1="1233.705" y1="843.667" x2="1219.779" y2="867.789"/>
<line fill="none" stroke="#FFFFFF" stroke-width="3" stroke-miterlimit="10" x1="1254.453" y1="849.227" x2="1254.455" y2="877.08"/>
<line fill="none" stroke="#FFFFFF" stroke-width="3" stroke-miterlimit="10" x1="1275.203" y1="843.667" x2="1289.131" y2="867.789"/>
<line fill="none" stroke="#FFFFFF" stroke-width="3" stroke-miterlimit="10" x1="1290.393" y1="828.479" x2="1314.516" y2="842.404"/>
<line fill="none" stroke="#FFFFFF" stroke-width="3" stroke-linecap="round" stroke-linejoin="round" stroke-miterlimit="10" x1="1290.395" y1="786.98" x2="1314.516" y2="773.053"/>
<path fill="none" stroke="#FFFFFF" stroke-width="3" stroke-linejoin="round" stroke-miterlimit="10" d="M1295.898,807.729
	c0,22.89-18.557,41.444-41.443,41.444c-22.891,0-41.445-18.556-41.445-41.444c0-22.89,18.555-41.444,41.445-41.444
	c7.455,0,14.451,1.97,20.496,5.416l0.252,0.092l13.928-24.123l0.002-0.012c-10.201-5.901-22.045-9.279-34.678-9.279
	c-38.303,0-69.354,31.05-69.354,69.353c0,38.301,31.051,69.351,69.354,69.351c38.301,0,69.35-31.05,69.352-69.352l-27.854,0.001
	L1295.898,807.729z"/>
<path fill="none" stroke="#000000" stroke-width="2" stroke-linecap="round" stroke-linejoin="round" stroke-miterlimit="10" d="
	M1377.5,1554.5c0,69.588-56.412,126-126,126s-126-56.412-126-126s56.412-126,126-126"/>
<path fill="none" stroke="#000000" stroke-width="2" stroke-linecap="round" stroke-linejoin="round" stroke-miterlimit="10" d="
	M1353.387,1554.5c0,56.148-45.738,101.665-101.887,101.665s-101.666-45.517-101.666-101.665s45.518-101.665,101.666-101.665"/>
<line fill="none" stroke="#000000" stroke-width="2" stroke-linecap="round" stroke-linejoin="round" stroke-miterlimit="10" x1="1251.5" y1="1428.5" x2="1251.5" y2="1452.5"/>
<line fill="none" stroke="#000000" stroke-width="2" stroke-miterlimit="10" x1="1188.5" y1="1445.381" x2="1200.5" y2="1466.166"/>
<line fill="none" stroke="#000000" stroke-width="2" stroke-miterlimit="10" x1="1142.381" y1="1491.5" x2="1163.164" y2="1503.5"/>
<line fill="none" stroke="#000000" stroke-width="2" stroke-miterlimit="10" x1="1125.5" y1="1554.5" x2="1149.498" y2="1554.5"/>
<line fill="none" stroke="#000000" stroke-width="2" stroke-miterlimit="10" x1="1142.381" y1="1617.5" x2="1163.164" y2="1605.5"/>
<line fill="none" stroke="#000000" stroke-width="2" stroke-miterlimit="10" x1="1188.5" y1="1663.619" x2="1200.498" y2="1642.834"/>
<line fill="none" stroke="#000000" stroke-width="2" stroke-miterlimit="10" x1="1251.5" y1="1680.5" x2="1251.498" y2="1656.5"/>
<line fill="none" stroke="#000000" stroke-width="2" stroke-miterlimit="10" x1="1314.5" y1="1663.619" x2="1302.498" y2="1642.835"/>
<line fill="none" stroke="#000000" stroke-width="2" stroke-miterlimit="10" x1="1360.619" y1="1617.5" x2="1339.834" y2="1605.5"/>
<line fill="none" stroke="#000000" stroke-width="2" stroke-linecap="round" stroke-linejoin="round" stroke-miterlimit="10" x1="1377.5" y1="1554.5" x2="1353.387" y2="1554.5"/>
<line fill="none" stroke="#000000" stroke-width="2" stroke-linecap="round" stroke-miterlimit="10" x1="1360.619" y1="1491.5" x2="1339.832" y2="1503.5"/>
<line fill="none" stroke="#000000" stroke-width="2" stroke-linecap="round" stroke-miterlimit="10" x1="1314.5" y1="1445.381" x2="1302.498" y2="1466.166"/>
<g>
	
		<line fill="none" stroke="#000000" stroke-width="2" stroke-linecap="round" stroke-linejoin="round" stroke-miterlimit="10" x1="1251.5" y1="1428.5" x2="1251.5" y2="1452.5"/>
	
		<line fill="none" stroke="#000000" stroke-width="2" stroke-miterlimit="10" x1="1188.5" y1="1445.381" x2="1200.5" y2="1466.166"/>
	
		<line fill="none" stroke="#000000" stroke-width="2" stroke-miterlimit="10" x1="1142.381" y1="1491.5" x2="1163.164" y2="1503.5"/>
	<line fill="none" stroke="#000000" stroke-width="2" stroke-miterlimit="10" x1="1125.5" y1="1554.5" x2="1149.498" y2="1554.5"/>
	
		<line fill="none" stroke="#000000" stroke-width="2" stroke-miterlimit="10" x1="1142.381" y1="1617.5" x2="1163.164" y2="1605.5"/>
	
		<line fill="none" stroke="#000000" stroke-width="2" stroke-miterlimit="10" x1="1188.5" y1="1663.619" x2="1200.498" y2="1642.834"/>
	<line fill="none" stroke="#000000" stroke-width="2" stroke-miterlimit="10" x1="1251.5" y1="1680.5" x2="1251.498" y2="1656.5"/>
	
		<line fill="none" stroke="#000000" stroke-width="2" stroke-miterlimit="10" x1="1314.5" y1="1663.619" x2="1302.498" y2="1642.835"/>
	
		<line fill="none" stroke="#000000" stroke-width="2" stroke-miterlimit="10" x1="1360.619" y1="1617.5" x2="1339.834" y2="1605.5"/>
	
		<line fill="none" stroke="#000000" stroke-width="2" stroke-linecap="round" stroke-linejoin="round" stroke-miterlimit="10" x1="1377.5" y1="1554.5" x2="1353.387" y2="1554.5"/>
	
		<line fill="none" stroke="#000000" stroke-width="2" stroke-linecap="round" stroke-miterlimit="10" x1="1360.619" y1="1491.5" x2="1339.832" y2="1503.5"/>
	
		<line fill="none" stroke="#000000" stroke-width="2" stroke-linecap="round" stroke-miterlimit="10" x1="1314.5" y1="1445.381" x2="1302.498" y2="1466.166"/>
</g>
<g>
	
		<line fill="none" stroke="#000000" stroke-width="2" stroke-linecap="round" stroke-linejoin="round" stroke-miterlimit="10" x1="1218.889" y1="1432.793" x2="1225.1" y2="1455.976"/>
	
		<line fill="none" stroke="#000000" stroke-width="2" stroke-miterlimit="10" x1="1162.404" y1="1465.404" x2="1179.373" y2="1482.375"/>
	
		<line fill="none" stroke="#000000" stroke-width="2" stroke-miterlimit="10" x1="1129.793" y1="1521.889" x2="1152.975" y2="1528.1"/>
	
		<line fill="none" stroke="#000000" stroke-width="2" stroke-miterlimit="10" x1="1129.793" y1="1587.111" x2="1152.975" y2="1580.9"/>
	
		<line fill="none" stroke="#000000" stroke-width="2" stroke-miterlimit="10" x1="1162.402" y1="1643.595" x2="1179.373" y2="1626.625"/>
	
		<line fill="none" stroke="#000000" stroke-width="2" stroke-miterlimit="10" x1="1218.887" y1="1676.206" x2="1225.098" y2="1653.023"/>
	
		<line fill="none" stroke="#000000" stroke-width="2" stroke-miterlimit="10" x1="1284.109" y1="1676.206" x2="1277.898" y2="1653.025"/>
	
		<line fill="none" stroke="#000000" stroke-width="2" stroke-miterlimit="10" x1="1340.594" y1="1643.596" x2="1323.623" y2="1626.625"/>
	
		<line fill="none" stroke="#000000" stroke-width="2" stroke-miterlimit="10" x1="1373.205" y1="1587.111" x2="1350.023" y2="1580.899"/>
	
		<line fill="none" stroke="#000000" stroke-width="2" stroke-linecap="round" stroke-miterlimit="10" x1="1373.205" y1="1521.889" x2="1350.023" y2="1528.102"/>
	
		<line fill="none" stroke="#000000" stroke-width="2" stroke-linecap="round" stroke-miterlimit="10" x1="1340.594" y1="1465.404" x2="1323.623" y2="1482.375"/>
	
		<line fill="none" stroke="#000000" stroke-width="2" stroke-linecap="round" stroke-miterlimit="10" x1="1284.111" y1="1432.793" x2="1277.896" y2="1455.977"/>
</g>
<circle fill="none" stroke="#000000" stroke-miterlimit="10" cx="920.879" cy="1554.5" r="126"/>
<path fill="none" stroke="#000000" stroke-miterlimit="10" d="M920.88,1452.835c18.52,0,35.883,4.952,50.838,13.604"/>
<path fill="none" stroke="#000000" stroke-miterlimit="10" d="M971.718,1466.439c30.384,17.578,50.827,50.432,50.827,88.061
	c0,56.148-45.517,101.665-101.665,101.665s-101.665-45.517-101.665-101.665s45.517-101.665,101.665-101.665"/>
<line fill="none" stroke="#000000" stroke-miterlimit="10" x1="920.88" y1="1428.5" x2="920.88" y2="1452.5"/>
<line fill="none" stroke="#000000" stroke-miterlimit="10" x1="857.88" y1="1445.381" x2="869.88" y2="1466.166"/>
<line fill="none" stroke="#000000" stroke-miterlimit="10" x1="811.761" y1="1491.5" x2="832.545" y2="1503.5"/>
<line fill="none" stroke="#000000" stroke-miterlimit="10" x1="794.88" y1="1554.5" x2="818.879" y2="1554.5"/>
<line fill="none" stroke="#000000" stroke-miterlimit="10" x1="811.761" y1="1617.5" x2="832.545" y2="1605.5"/>
<line fill="none" stroke="#000000" stroke-miterlimit="10" x1="857.88" y1="1663.619" x2="869.879" y2="1642.834"/>
<line fill="none" stroke="#000000" stroke-miterlimit="10" x1="920.88" y1="1680.5" x2="920.879" y2="1656.5"/>
<line fill="none" stroke="#000000" stroke-miterlimit="10" x1="983.879" y1="1663.619" x2="971.879" y2="1642.835"/>
<line fill="none" stroke="#000000" stroke-miterlimit="10" x1="1029.998" y1="1617.5" x2="1009.213" y2="1605.5"/>
<line fill="none" stroke="#000000" stroke-miterlimit="10" x1="1046.879" y1="1554.5" x2="1022.879" y2="1554.5"/>
<line fill="none" stroke="#000000" stroke-miterlimit="10" x1="1029.998" y1="1491.5" x2="1009.213" y2="1503.5"/>
<line fill="none" stroke="#000000" stroke-miterlimit="10" x1="983.879" y1="1445.381" x2="971.879" y2="1466.166"/>
<g>
	<line fill="none" stroke="#000000" stroke-miterlimit="10" x1="920.88" y1="1428.5" x2="920.88" y2="1452.5"/>
	<line fill="none" stroke="#000000" stroke-miterlimit="10" x1="857.88" y1="1445.381" x2="869.88" y2="1466.166"/>
	<line fill="none" stroke="#000000" stroke-miterlimit="10" x1="811.761" y1="1491.5" x2="832.545" y2="1503.5"/>
	<line fill="none" stroke="#000000" stroke-miterlimit="10" x1="794.88" y1="1554.5" x2="818.879" y2="1554.5"/>
	<line fill="none" stroke="#000000" stroke-miterlimit="10" x1="811.761" y1="1617.5" x2="832.545" y2="1605.5"/>
	<line fill="none" stroke="#000000" stroke-miterlimit="10" x1="857.88" y1="1663.619" x2="869.879" y2="1642.834"/>
	<line fill="none" stroke="#000000" stroke-miterlimit="10" x1="920.88" y1="1680.5" x2="920.879" y2="1656.5"/>
	<line fill="none" stroke="#000000" stroke-miterlimit="10" x1="983.879" y1="1663.619" x2="971.879" y2="1642.835"/>
	<line fill="none" stroke="#000000" stroke-miterlimit="10" x1="1029.998" y1="1617.5" x2="1009.213" y2="1605.5"/>
	<line fill="none" stroke="#000000" stroke-miterlimit="10" x1="1046.879" y1="1554.5" x2="1022.879" y2="1554.5"/>
	<line fill="none" stroke="#000000" stroke-miterlimit="10" x1="1029.998" y1="1491.5" x2="1009.213" y2="1503.5"/>
	<line fill="none" stroke="#000000" stroke-miterlimit="10" x1="983.879" y1="1445.381" x2="971.879" y2="1466.166"/>
</g>
<g>
	<line fill="none" stroke="#000000" stroke-miterlimit="10" x1="888.269" y1="1432.793" x2="894.48" y2="1455.976"/>
	<line fill="none" stroke="#000000" stroke-miterlimit="10" x1="831.784" y1="1465.404" x2="848.754" y2="1482.375"/>
	<line fill="none" stroke="#000000" stroke-miterlimit="10" x1="799.173" y1="1521.889" x2="822.354" y2="1528.1"/>
	<line fill="none" stroke="#000000" stroke-miterlimit="10" x1="799.173" y1="1587.111" x2="822.354" y2="1580.9"/>
	<line fill="none" stroke="#000000" stroke-miterlimit="10" x1="831.783" y1="1643.595" x2="848.754" y2="1626.625"/>
	<line fill="none" stroke="#000000" stroke-miterlimit="10" x1="888.268" y1="1676.206" x2="894.479" y2="1653.023"/>
	<line fill="none" stroke="#000000" stroke-miterlimit="10" x1="953.49" y1="1676.206" x2="947.278" y2="1653.025"/>
	<line fill="none" stroke="#000000" stroke-miterlimit="10" x1="1009.975" y1="1643.596" x2="993.002" y2="1626.625"/>
	<line fill="none" stroke="#000000" stroke-miterlimit="10" x1="1042.586" y1="1587.111" x2="1019.402" y2="1580.899"/>
	<line fill="none" stroke="#000000" stroke-miterlimit="10" x1="1042.586" y1="1521.889" x2="1019.402" y2="1528.102"/>
	<line fill="none" stroke="#000000" stroke-miterlimit="10" x1="1009.975" y1="1465.404" x2="993.002" y2="1482.375"/>
	<line fill="none" stroke="#000000" stroke-miterlimit="10" x1="953.491" y1="1432.793" x2="947.277" y2="1455.977"/>
</g>
<rect x="-1354.315" y="687.97" width="204" height="207"/>
<g>
	<g id="XMLID_2_">
		<g>
			<path fill="none" stroke="#FFFFFF" stroke-width="3" stroke-miterlimit="10" d="M-1321.963,805.501
				c4.511,13.988,13.351,26.028,24.94,34.55c11.37,8.37,25.38,13.33,40.55,13.42c0.13,0,0.271,0,0.4,0
				c15.1,0,29.07-4.83,40.449-13.04c11.78-8.49,20.78-20.59,25.381-34.69c2.21-6.77,3.41-14.01,3.41-21.52s-1.2-14.75-3.41-21.521
				c-4.602-14.09-13.61-26.198-25.391-34.68c-11.369-8.21-25.34-13.04-40.439-13.04c-0.13,0-0.271,0-0.4,0
				c-15.17,0.09-29.18,5.062-40.55,13.42c-11.59,8.521-20.43,20.562-24.94,34.54"/>
			<path fill="none" stroke="#FFFFFF" stroke-width="3" stroke-miterlimit="10" d="M-1297.023,840.041l17.43-23.99
				c-6.58-4.87-11.6-11.74-14.159-19.71"/>
			<path fill="none" stroke="#FFFFFF" stroke-width="3" stroke-miterlimit="10" d="M-1256.473,853.221v-29.43
				c-8.65-0.092-16.64-2.95-23.12-7.74"/>
			<path fill="none" stroke="#FFFFFF" stroke-width="3" stroke-miterlimit="10" d="M-1215.913,840.041l-17.16-23.62
				c-6.49,4.64-14.42,7.38-23,7.38c-0.13,0-0.26-0.01-0.4-0.01"/>
			<path fill="none" stroke="#FFFFFF" stroke-width="3" stroke-miterlimit="10" d="M-1190.853,805.541l-27.62-8.972
				c-2.65,8.08-7.83,15.012-14.6,19.852"/>
			<path fill="none" stroke="#FFFFFF" stroke-width="3" stroke-miterlimit="10" d="M-1190.853,762.9l-27.62,8.98
				c1.28,3.88,1.98,8.028,1.98,12.34c0,4.32-0.7,8.46-1.98,12.35"/>
			<path fill="none" stroke="#FFFFFF" stroke-width="3" stroke-miterlimit="10" d="M-1215.913,728.4l-17.16,23.62
				c6.77,4.852,11.95,11.78,14.6,19.86"/>
			<path fill="none" stroke="#FFFFFF" stroke-width="3" stroke-miterlimit="10" d="M-1256.473,715.23v29.43
				c0.141,0,0.271-0.01,0.4-0.01c8.58,0,16.51,2.74,23,7.37"/>
			<path fill="none" stroke="#FFFFFF" stroke-width="3" stroke-miterlimit="10" d="M-1297.023,728.4l17.43,24
				c6.48-4.8,14.47-7.66,23.12-7.74"/>
			<path fill="none" stroke="#FFFFFF" stroke-width="3" stroke-miterlimit="10" d="M-1293.752,772.11
				c2.56-7.97,7.579-14.84,14.159-19.71"/>
			<path fill="none" stroke="#FFFFFF" stroke-width="3" stroke-miterlimit="10" d="M-1293.752,796.341
				c-1.221-3.82-1.891-7.892-1.891-12.12c0-4.22,0.67-8.29,1.891-12.11l-28.211-9.17c-2.17,6.71-3.35,13.86-3.35,21.28
				c0,7.43,1.18,14.58,3.35,21.28L-1293.752,796.341z"/>
		</g>
	</g>
</g>
<rect x="-1140.663" y="687.97" width="204" height="207"/>
<rect x="-930.93" y="690.329" width="226.791" height="205.585"/>
<rect x="-685.331" y="690.329" width="226.791" height="205.585"/>
<g>
	
		<line fill="none" stroke="#FFFFFF" stroke-width="3" stroke-miterlimit="10" x1="-1071.788" y1="732.848" x2="-1063.954" y2="746.416"/>
	
		<line fill="none" stroke="#FFFFFF" stroke-width="3" stroke-miterlimit="10" x1="-1096.372" y1="757.431" x2="-1082.803" y2="765.264"/>
	
		<line fill="none" stroke="#FFFFFF" stroke-width="3" stroke-miterlimit="10" x1="-1105.37" y1="791.013" x2="-1089.703" y2="791.013"/>
	
		<line fill="none" stroke="#FFFFFF" stroke-width="3" stroke-miterlimit="10" x1="-1096.372" y1="824.595" x2="-1082.803" y2="816.761"/>
	
		<line fill="none" stroke="#FFFFFF" stroke-width="3" stroke-miterlimit="10" x1="-1071.788" y1="849.179" x2="-1063.954" y2="835.61"/>
	
		<line fill="none" stroke="#FFFFFF" stroke-width="3" stroke-miterlimit="10" x1="-1038.206" y1="858.177" x2="-1038.206" y2="842.509"/>
	
		<line fill="none" stroke="#FFFFFF" stroke-width="3" stroke-miterlimit="10" x1="-1004.624" y1="849.179" x2="-1012.458" y2="835.61"/>
	
		<line fill="none" stroke="#FFFFFF" stroke-width="3" stroke-miterlimit="10" x1="-980.04" y1="824.595" x2="-993.609" y2="816.761"/>
	
		<line fill="none" stroke="#FFFFFF" stroke-width="3" stroke-miterlimit="10" x1="-980.04" y1="757.431" x2="-993.609" y2="765.265"/>
	
		<line fill="none" stroke="#FFFFFF" stroke-width="3" stroke-miterlimit="10" x1="-1004.624" y1="732.847" x2="-1012.458" y2="746.416"/>
	<path fill="none" stroke="#FFFFFF" stroke-width="3" stroke-miterlimit="10" d="M-971.956,791.012"/>
	<path fill="none" stroke="#FFFFFF" stroke-width="3" stroke-miterlimit="10" d="M-1038.206,739.05
		c-28.698,0-51.963,23.264-51.963,51.962c0,28.698,23.265,51.961,51.963,51.961s51.963-23.264,51.963-51.961h14.287
		c0,36.588-29.661,66.25-66.25,66.25s-66.25-29.662-66.25-66.25c0-36.589,29.661-66.25,66.25-66.25V739.05z"/>
</g>
<circle fill="none" stroke="#FFFFFF" stroke-width="3" stroke-miterlimit="10" cx="-816.581" cy="807.729" r="69.351"/>
<circle fill="none" stroke="#FFFFFF" stroke-width="3" stroke-miterlimit="10" cx="-816.581" cy="807.729" r="69.351"/>
<circle fill="none" stroke="#FFFFFF" stroke-width="3" stroke-miterlimit="10" cx="-816.581" cy="807.729" r="40.201"/>
<line fill="none" stroke="#FFFFFF" stroke-width="3" stroke-miterlimit="10" x1="-816.579" y1="766.232" x2="-816.579" y2="738.377"/>
<line fill="none" stroke="#FFFFFF" stroke-width="3" stroke-miterlimit="10" x1="-837.327" y1="771.791" x2="-851.254" y2="747.668"/>
<line fill="none" stroke="#FFFFFF" stroke-width="3" stroke-miterlimit="10" x1="-852.516" y1="786.979" x2="-876.639" y2="773.053"/>
<line fill="none" stroke="#FFFFFF" stroke-width="3" stroke-miterlimit="10" x1="-858.077" y1="807.729" x2="-885.93" y2="807.729"/>
<line fill="none" stroke="#FFFFFF" stroke-width="3" stroke-miterlimit="10" x1="-852.517" y1="828.479" x2="-876.639" y2="842.404"/>
<line fill="none" stroke="#FFFFFF" stroke-width="3" stroke-miterlimit="10" x1="-837.329" y1="843.667" x2="-851.254" y2="867.789"/>
<line fill="none" stroke="#FFFFFF" stroke-width="3" stroke-miterlimit="10" x1="-816.581" y1="849.227" x2="-816.579" y2="877.08"/>
<line fill="none" stroke="#FFFFFF" stroke-width="3" stroke-miterlimit="10" x1="-795.831" y1="843.667" x2="-781.903" y2="867.789"/>
<line fill="none" stroke="#FFFFFF" stroke-width="3" stroke-miterlimit="10" x1="-780.641" y1="828.479" x2="-756.518" y2="842.404"/>
<line fill="none" stroke="#FFFFFF" stroke-width="3" stroke-miterlimit="10" x1="-775.081" y1="807.729" x2="-747.227" y2="807.729"/>
<line fill="none" stroke="#FFFFFF" stroke-width="3" stroke-miterlimit="10" x1="-780.641" y1="786.98" x2="-756.518" y2="773.053"/>
<line fill="none" stroke="#FFFFFF" stroke-width="3" stroke-miterlimit="10" x1="-795.831" y1="771.791" x2="-781.903" y2="747.668"/>
<line fill="none" stroke="#FFFFFF" stroke-width="3" stroke-miterlimit="10" x1="-551.184" y1="766.232" x2="-551.184" y2="738.377"/>
<line fill="none" stroke="#FFFFFF" stroke-width="3" stroke-miterlimit="10" x1="-571.932" y1="771.791" x2="-585.86" y2="747.668"/>
<line fill="none" stroke="#FFFFFF" stroke-width="3" stroke-miterlimit="10" x1="-587.122" y1="786.979" x2="-611.245" y2="773.053"/>
<line fill="none" stroke="#FFFFFF" stroke-width="3" stroke-miterlimit="10" x1="-592.682" y1="807.729" x2="-620.536" y2="807.729"/>
<line fill="none" stroke="#FFFFFF" stroke-width="3" stroke-miterlimit="10" x1="-587.122" y1="828.479" x2="-611.245" y2="842.404"/>
<line fill="none" stroke="#FFFFFF" stroke-width="3" stroke-miterlimit="10" x1="-571.934" y1="843.667" x2="-585.86" y2="867.789"/>
<line fill="none" stroke="#FFFFFF" stroke-width="3" stroke-miterlimit="10" x1="-551.186" y1="849.227" x2="-551.184" y2="877.08"/>
<line fill="none" stroke="#FFFFFF" stroke-width="3" stroke-miterlimit="10" x1="-530.436" y1="843.667" x2="-516.508" y2="867.789"/>
<line fill="none" stroke="#FFFFFF" stroke-width="3" stroke-miterlimit="10" x1="-515.247" y1="828.479" x2="-491.124" y2="842.404"/>
<line fill="none" stroke="#FFFFFF" stroke-width="3" stroke-linecap="round" stroke-linejoin="round" stroke-miterlimit="10" x1="-515.245" y1="786.98" x2="-491.124" y2="773.053"/>
<path fill="none" stroke="#FFFFFF" stroke-width="3" stroke-linejoin="round" stroke-miterlimit="10" d="M-509.741,807.729
	c0,22.89-18.557,41.444-41.443,41.444c-22.891,0-41.445-18.556-41.445-41.444c0-22.89,18.555-41.444,41.445-41.444
	c7.455,0,14.451,1.97,20.496,5.416l0.252,0.092l13.928-24.123l0.002-0.012c-10.201-5.901-22.045-9.279-34.678-9.279
	c-38.303,0-69.354,31.05-69.354,69.353c0,38.301,31.051,69.351,69.354,69.351c38.301,0,69.35-31.05,69.352-69.352l-27.854,0.001
	L-509.741,807.729z"/>
<path fill="none" stroke="#000000" stroke-width="2" stroke-linecap="round" stroke-linejoin="round" stroke-miterlimit="10" d="
	M-428.139,1554.5c0,69.588-56.412,126-126,126s-126-56.412-126-126s56.412-126,126-126"/>
<path fill="none" stroke="#000000" stroke-width="2" stroke-linecap="round" stroke-linejoin="round" stroke-miterlimit="10" d="
	M-452.252,1554.5c0,56.148-45.738,101.665-101.887,101.665s-101.666-45.517-101.666-101.665s45.518-101.665,101.666-101.665"/>
<line fill="none" stroke="#000000" stroke-width="2" stroke-linecap="round" stroke-linejoin="round" stroke-miterlimit="10" x1="-554.139" y1="1428.5" x2="-554.139" y2="1452.5"/>
<line fill="none" stroke="#000000" stroke-width="2" stroke-miterlimit="10" x1="-617.139" y1="1445.381" x2="-605.139" y2="1466.166"/>
<line fill="none" stroke="#000000" stroke-width="2" stroke-miterlimit="10" x1="-663.258" y1="1491.5" x2="-642.475" y2="1503.5"/>
<line fill="none" stroke="#000000" stroke-width="2" stroke-miterlimit="10" x1="-680.139" y1="1554.5" x2="-656.141" y2="1554.5"/>
<line fill="none" stroke="#000000" stroke-width="2" stroke-miterlimit="10" x1="-663.258" y1="1617.5" x2="-642.475" y2="1605.5"/>
<line fill="none" stroke="#000000" stroke-width="2" stroke-miterlimit="10" x1="-617.139" y1="1663.619" x2="-605.141" y2="1642.834"/>
<line fill="none" stroke="#000000" stroke-width="2" stroke-miterlimit="10" x1="-554.139" y1="1680.5" x2="-554.141" y2="1656.5"/>
<line fill="none" stroke="#000000" stroke-width="2" stroke-miterlimit="10" x1="-491.139" y1="1663.619" x2="-503.141" y2="1642.835"/>
<line fill="none" stroke="#000000" stroke-width="2" stroke-miterlimit="10" x1="-445.02" y1="1617.5" x2="-465.805" y2="1605.5"/>
<line fill="none" stroke="#000000" stroke-width="2" stroke-linecap="round" stroke-linejoin="round" stroke-miterlimit="10" x1="-428.139" y1="1554.5" x2="-452.252" y2="1554.5"/>
<line fill="none" stroke="#000000" stroke-width="2" stroke-linecap="round" stroke-miterlimit="10" x1="-445.02" y1="1491.5" x2="-465.807" y2="1503.5"/>
<line fill="none" stroke="#000000" stroke-width="2" stroke-linecap="round" stroke-miterlimit="10" x1="-491.139" y1="1445.381" x2="-503.141" y2="1466.166"/>
<g>
	
		<line fill="none" stroke="#000000" stroke-width="2" stroke-linecap="round" stroke-linejoin="round" stroke-miterlimit="10" x1="-554.139" y1="1428.5" x2="-554.139" y2="1452.5"/>
	
		<line fill="none" stroke="#000000" stroke-width="2" stroke-miterlimit="10" x1="-617.139" y1="1445.381" x2="-605.139" y2="1466.166"/>
	
		<line fill="none" stroke="#000000" stroke-width="2" stroke-miterlimit="10" x1="-663.258" y1="1491.5" x2="-642.475" y2="1503.5"/>
	
		<line fill="none" stroke="#000000" stroke-width="2" stroke-miterlimit="10" x1="-680.139" y1="1554.5" x2="-656.141" y2="1554.5"/>
	
		<line fill="none" stroke="#000000" stroke-width="2" stroke-miterlimit="10" x1="-663.258" y1="1617.5" x2="-642.475" y2="1605.5"/>
	
		<line fill="none" stroke="#000000" stroke-width="2" stroke-miterlimit="10" x1="-617.139" y1="1663.619" x2="-605.141" y2="1642.834"/>
	
		<line fill="none" stroke="#000000" stroke-width="2" stroke-miterlimit="10" x1="-554.139" y1="1680.5" x2="-554.141" y2="1656.5"/>
	
		<line fill="none" stroke="#000000" stroke-width="2" stroke-miterlimit="10" x1="-491.139" y1="1663.619" x2="-503.141" y2="1642.835"/>
	<line fill="none" stroke="#000000" stroke-width="2" stroke-miterlimit="10" x1="-445.02" y1="1617.5" x2="-465.805" y2="1605.5"/>
	
		<line fill="none" stroke="#000000" stroke-width="2" stroke-linecap="round" stroke-linejoin="round" stroke-miterlimit="10" x1="-428.139" y1="1554.5" x2="-452.252" y2="1554.5"/>
	
		<line fill="none" stroke="#000000" stroke-width="2" stroke-linecap="round" stroke-miterlimit="10" x1="-445.02" y1="1491.5" x2="-465.807" y2="1503.5"/>
	
		<line fill="none" stroke="#000000" stroke-width="2" stroke-linecap="round" stroke-miterlimit="10" x1="-491.139" y1="1445.381" x2="-503.141" y2="1466.166"/>
</g>
<g>
	
		<line fill="none" stroke="#000000" stroke-width="2" stroke-linecap="round" stroke-linejoin="round" stroke-miterlimit="10" x1="-586.75" y1="1432.793" x2="-580.54" y2="1455.976"/>
	
		<line fill="none" stroke="#000000" stroke-width="2" stroke-miterlimit="10" x1="-643.235" y1="1465.404" x2="-626.266" y2="1482.375"/>
	
		<line fill="none" stroke="#000000" stroke-width="2" stroke-miterlimit="10" x1="-675.846" y1="1521.889" x2="-652.665" y2="1528.1"/>
	
		<line fill="none" stroke="#000000" stroke-width="2" stroke-miterlimit="10" x1="-675.846" y1="1587.111" x2="-652.665" y2="1580.9"/>
	
		<line fill="none" stroke="#000000" stroke-width="2" stroke-miterlimit="10" x1="-643.237" y1="1643.595" x2="-626.266" y2="1626.625"/>
	
		<line fill="none" stroke="#000000" stroke-width="2" stroke-miterlimit="10" x1="-586.752" y1="1676.206" x2="-580.542" y2="1653.023"/>
	
		<line fill="none" stroke="#000000" stroke-width="2" stroke-miterlimit="10" x1="-521.53" y1="1676.206" x2="-527.741" y2="1653.025"/>
	
		<line fill="none" stroke="#000000" stroke-width="2" stroke-miterlimit="10" x1="-465.045" y1="1643.596" x2="-482.016" y2="1626.625"/>
	
		<line fill="none" stroke="#000000" stroke-width="2" stroke-miterlimit="10" x1="-432.434" y1="1587.111" x2="-455.616" y2="1580.899"/>
	
		<line fill="none" stroke="#000000" stroke-width="2" stroke-linecap="round" stroke-miterlimit="10" x1="-432.434" y1="1521.889" x2="-455.616" y2="1528.102"/>
	
		<line fill="none" stroke="#000000" stroke-width="2" stroke-linecap="round" stroke-miterlimit="10" x1="-465.045" y1="1465.404" x2="-482.016" y2="1482.375"/>
	
		<line fill="none" stroke="#000000" stroke-width="2" stroke-linecap="round" stroke-miterlimit="10" x1="-521.528" y1="1432.793" x2="-527.743" y2="1455.977"/>
</g>
<circle fill="none" stroke="#000000" stroke-miterlimit="10" cx="-884.76" cy="1554.5" r="126"/>
<path fill="none" stroke="#000000" stroke-miterlimit="10" d="M-884.759,1452.835c18.52,0,35.883,4.952,50.838,13.604"/>
<path fill="none" stroke="#000000" stroke-miterlimit="10" d="M-833.921,1466.439c30.384,17.578,50.827,50.432,50.827,88.061
	c0,56.148-45.517,101.665-101.665,101.665s-101.665-45.517-101.665-101.665s45.517-101.665,101.665-101.665"/>
<line fill="none" stroke="#000000" stroke-miterlimit="10" x1="-884.759" y1="1428.5" x2="-884.759" y2="1452.5"/>
<line fill="none" stroke="#000000" stroke-miterlimit="10" x1="-947.759" y1="1445.381" x2="-935.759" y2="1466.166"/>
<line fill="none" stroke="#000000" stroke-miterlimit="10" x1="-993.878" y1="1491.5" x2="-973.094" y2="1503.5"/>
<line fill="none" stroke="#000000" stroke-miterlimit="10" x1="-1010.759" y1="1554.5" x2="-986.76" y2="1554.5"/>
<line fill="none" stroke="#000000" stroke-miterlimit="10" x1="-993.878" y1="1617.5" x2="-973.094" y2="1605.5"/>
<line fill="none" stroke="#000000" stroke-miterlimit="10" x1="-947.759" y1="1663.619" x2="-935.76" y2="1642.834"/>
<line fill="none" stroke="#000000" stroke-miterlimit="10" x1="-884.759" y1="1680.5" x2="-884.76" y2="1656.5"/>
<line fill="none" stroke="#000000" stroke-miterlimit="10" x1="-821.76" y1="1663.619" x2="-833.76" y2="1642.835"/>
<line fill="none" stroke="#000000" stroke-miterlimit="10" x1="-775.641" y1="1617.5" x2="-796.426" y2="1605.5"/>
<line fill="none" stroke="#000000" stroke-miterlimit="10" x1="-758.76" y1="1554.5" x2="-782.76" y2="1554.5"/>
<line fill="none" stroke="#000000" stroke-miterlimit="10" x1="-775.641" y1="1491.5" x2="-796.426" y2="1503.5"/>
<line fill="none" stroke="#000000" stroke-miterlimit="10" x1="-821.76" y1="1445.381" x2="-833.76" y2="1466.166"/>
<g>
	<line fill="none" stroke="#000000" stroke-miterlimit="10" x1="-884.759" y1="1428.5" x2="-884.759" y2="1452.5"/>
	<line fill="none" stroke="#000000" stroke-miterlimit="10" x1="-947.759" y1="1445.381" x2="-935.759" y2="1466.166"/>
	<line fill="none" stroke="#000000" stroke-miterlimit="10" x1="-993.878" y1="1491.5" x2="-973.094" y2="1503.5"/>
	<line fill="none" stroke="#000000" stroke-miterlimit="10" x1="-1010.759" y1="1554.5" x2="-986.76" y2="1554.5"/>
	<line fill="none" stroke="#000000" stroke-miterlimit="10" x1="-993.878" y1="1617.5" x2="-973.094" y2="1605.5"/>
	<line fill="none" stroke="#000000" stroke-miterlimit="10" x1="-947.759" y1="1663.619" x2="-935.76" y2="1642.834"/>
	<line fill="none" stroke="#000000" stroke-miterlimit="10" x1="-884.759" y1="1680.5" x2="-884.76" y2="1656.5"/>
	<line fill="none" stroke="#000000" stroke-miterlimit="10" x1="-821.76" y1="1663.619" x2="-833.76" y2="1642.835"/>
	<line fill="none" stroke="#000000" stroke-miterlimit="10" x1="-775.641" y1="1617.5" x2="-796.426" y2="1605.5"/>
	<line fill="none" stroke="#000000" stroke-miterlimit="10" x1="-758.76" y1="1554.5" x2="-782.76" y2="1554.5"/>
	<line fill="none" stroke="#000000" stroke-miterlimit="10" x1="-775.641" y1="1491.5" x2="-796.426" y2="1503.5"/>
	<line fill="none" stroke="#000000" stroke-miterlimit="10" x1="-821.76" y1="1445.381" x2="-833.76" y2="1466.166"/>
</g>
<g>
	<line fill="none" stroke="#000000" stroke-miterlimit="10" x1="-917.371" y1="1432.793" x2="-911.159" y2="1455.976"/>
	<line fill="none" stroke="#000000" stroke-miterlimit="10" x1="-973.855" y1="1465.404" x2="-956.885" y2="1482.375"/>
	<line fill="none" stroke="#000000" stroke-miterlimit="10" x1="-1006.466" y1="1521.889" x2="-983.285" y2="1528.1"/>
	<line fill="none" stroke="#000000" stroke-miterlimit="10" x1="-1006.466" y1="1587.111" x2="-983.285" y2="1580.9"/>
	<line fill="none" stroke="#000000" stroke-miterlimit="10" x1="-973.856" y1="1643.595" x2="-956.885" y2="1626.625"/>
	<line fill="none" stroke="#000000" stroke-miterlimit="10" x1="-917.372" y1="1676.206" x2="-911.161" y2="1653.023"/>
	<line fill="none" stroke="#000000" stroke-miterlimit="10" x1="-852.149" y1="1676.206" x2="-858.361" y2="1653.025"/>
	<line fill="none" stroke="#000000" stroke-miterlimit="10" x1="-795.665" y1="1643.596" x2="-812.637" y2="1626.625"/>
	<line fill="none" stroke="#000000" stroke-miterlimit="10" x1="-763.053" y1="1587.111" x2="-786.237" y2="1580.899"/>
	<line fill="none" stroke="#000000" stroke-miterlimit="10" x1="-763.053" y1="1521.889" x2="-786.237" y2="1528.102"/>
	<line fill="none" stroke="#000000" stroke-miterlimit="10" x1="-795.665" y1="1465.404" x2="-812.637" y2="1482.375"/>
	<line fill="none" stroke="#000000" stroke-miterlimit="10" x1="-852.148" y1="1432.793" x2="-858.362" y2="1455.977"/>
</g>
<rect x="-5287.032" width="1728" height="1728"/>
<g>
	<path fill="none" stroke="#FFFFFF" stroke-width="30" stroke-miterlimit="10" d="M-4423.05,237.254
		c346.156,0,626.753,280.608,626.753,626.746c0,346.147-280.597,626.755-626.753,626.755
		c-346.128,0-626.735-280.607-626.735-626.755C-5049.785,517.862-4769.179,237.254-4423.05,237.254z"/>
	<path fill="none" stroke="#FFFFFF" stroke-width="30" stroke-miterlimit="10" d="M-4423.05,237.254
		c346.156,0,626.753,280.608,626.753,626.746c0,346.147-280.597,626.755-626.753,626.755
		c-346.128,0-626.735-280.607-626.735-626.755C-5049.785,517.862-4769.179,237.254-4423.05,237.254z"/>
	<path fill="none" stroke="#FFFFFF" stroke-width="30" stroke-miterlimit="10" d="M-4423.05,500.696
		c200.658,0,363.314,162.655,363.314,363.304c0,200.657-162.656,363.312-363.314,363.312
		c-200.639,0-363.295-162.654-363.295-363.312C-4786.346,663.351-4623.689,500.696-4423.05,500.696z"/>
	
		<line fill="none" stroke="#FFFFFF" stroke-width="30" stroke-miterlimit="10" x1="-4423.032" y1="488.985" x2="-4423.032" y2="237.245"/>
	
		<line fill="none" stroke="#FFFFFF" stroke-width="30" stroke-miterlimit="10" x1="-4610.54" y1="539.22" x2="-4736.409" y2="321.212"/>
	
		<line fill="none" stroke="#FFFFFF" stroke-width="30" stroke-miterlimit="10" x1="-4747.814" y1="676.475" x2="-4965.818" y2="550.622"/>
	<line fill="none" stroke="#FFFFFF" stroke-width="30" stroke-miterlimit="10" x1="-4798.066" y1="864" x2="-5049.785" y2="864"/>
	
		<line fill="none" stroke="#FFFFFF" stroke-width="30" stroke-miterlimit="10" x1="-4747.819" y1="1051.525" x2="-4965.818" y2="1177.378"/>
	
		<line fill="none" stroke="#FFFFFF" stroke-width="30" stroke-miterlimit="10" x1="-4610.559" y1="1188.789" x2="-4736.409" y2="1406.789"/>
	
		<line fill="none" stroke="#FFFFFF" stroke-width="30" stroke-miterlimit="10" x1="-4423.05" y1="1239.032" x2="-4423.032" y2="1490.755"/>
	
		<line fill="none" stroke="#FFFFFF" stroke-width="30" stroke-miterlimit="10" x1="-4235.524" y1="1188.789" x2="-4109.655" y2="1406.789"/>
	
		<line fill="none" stroke="#FFFFFF" stroke-width="30" stroke-miterlimit="10" x1="-4098.254" y1="1051.525" x2="-3880.245" y2="1177.378"/>
	<line fill="none" stroke="#FFFFFF" stroke-width="30" stroke-miterlimit="10" x1="-4047.998" y1="864" x2="-3796.279" y2="864"/>
	
		<line fill="none" stroke="#FFFFFF" stroke-width="30" stroke-miterlimit="10" x1="-4098.254" y1="676.492" x2="-3880.245" y2="550.622"/>
	
		<line fill="none" stroke="#FFFFFF" stroke-width="30" stroke-miterlimit="10" x1="-4235.524" y1="539.22" x2="-4109.655" y2="321.212"/>
</g>
</svg>
